<?xml version="1.0" encoding="utf-8"?>
<!-- Generator: Adobe Illustrator 16.0.0, SVG Export Plug-In . SVG Version: 6.00 Build 0)  -->
<!DOCTYPE svg PUBLIC "-//W3C//DTD SVG 1.1//EN" "http://www.w3.org/Graphics/SVG/1.1/DTD/svg11.dtd">
<svg version="1.1" id="Layer_4" xmlns="http://www.w3.org/2000/svg" xmlns:xlink="http://www.w3.org/1999/xlink" x="0px" y="0px"
	 width="32px" height="126.5px" viewBox="0 0 32 126.5" enable-background="new 0 0 32 126.5" xml:space="preserve">
<g>
	<path fill-rule="evenodd" clip-rule="evenodd" fill="#6633FF" d="M30.963,115.739c0.028,0.032,0.056,0.063,0.084,0.095
		c-1.293-0.294-2.605-0.747-3.936-1.358c1.191,0.347,2.412,0.733,3.661,1.159C30.836,115.671,30.899,115.706,30.963,115.739z
		 M31.019,115.772c0.061,0.032,0.121,0.064,0.18,0.095c-0.047-0.01-0.094-0.021-0.141-0.031
		C31.045,115.815,31.032,115.793,31.019,115.772z M0.372,85.04c0.009,0.011,0.018,0.022,0.027,0.033
		c-0.003,0-0.005-0.001-0.008-0.001C0.385,85.061,0.378,85.05,0.372,85.04z M0.464,85.154c0.016,0.021,0.033,0.042,0.049,0.062
		c-0.014-0.004-0.028-0.01-0.042-0.015c-0.013-0.021-0.027-0.043-0.04-0.065C0.442,85.143,0.453,85.148,0.464,85.154z M4.486,91.517
		c-1.312-1.967-2.638-4.051-3.976-6.252c0.03,0.022,0.061,0.044,0.092,0.065C2.23,87.396,3.525,89.458,4.486,91.517z
		 M20.785,110.486c-3.75-2.982-7.635-7.125-11.656-12.426c-1.134-2.949-3.104-6.178-5.912-9.685
		c10.788,12.55,18.94,20.939,24.459,25.166C25.321,112.168,23.023,111.15,20.785,110.486z"/>
	<path fill-rule="evenodd" clip-rule="evenodd" fill="#FF0000" d="M3.768,87.363c2.357,1.374,4.656,2.393,6.896,3.059
		c3.749,2.982,7.635,7.124,11.656,12.424c1.13,2.941,3.092,6.16,5.886,9.657C17.429,99.965,9.283,91.586,3.768,87.363z
		 M27.677,113.541c1.018,0.593,2.047,1.253,3.086,1.979c0.049,0.054,0.098,0.108,0.147,0.164c-0.045-0.016-0.092-0.032-0.138-0.048
		c-1.249-0.425-2.469-0.812-3.661-1.159c-9.499-2.766-17.151-3.034-22.957-0.805c1.255-0.816,2.317-1.696,3.186-2.64
		c4.218-1.773,8.699-1.955,13.444-0.546C23.023,111.15,25.321,112.168,27.677,113.541z M26.963,109.391
		c1.312,1.967,2.639,4.052,3.979,6.253c0.045,0.031,0.09,0.063,0.135,0.095c-0.033-0.011-0.065-0.022-0.098-0.034
		c0.013,0.022,0.026,0.044,0.04,0.067c0.013,0.021,0.026,0.043,0.039,0.064c0.006,0.011,0.013,0.021,0.019,0.031
		C29.34,113.704,27.969,111.545,26.963,109.391z M0.399,85.073c0.001,0.001,0.003,0.001,0.004,0.001
		c1.294,0.293,2.607,0.746,3.939,1.358c-1.192-0.347-2.414-0.733-3.664-1.158c-0.065-0.037-0.129-0.073-0.192-0.107
		c-0.007-0.004-0.015-0.008-0.022-0.012c-0.011-0.006-0.022-0.012-0.033-0.018C0.371,85.104,0.31,85.071,0.25,85.04
		c0.046,0.01,0.094,0.021,0.141,0.031C0.394,85.072,0.396,85.072,0.399,85.073z"/>
	<path fill-rule="evenodd" clip-rule="evenodd" fill="#FF9900" d="M0.486,85.167c0.018,0.02,0.036,0.04,0.054,0.06
		c-0.009-0.003-0.018-0.006-0.026-0.009c-0.017-0.021-0.033-0.042-0.049-0.062C0.471,85.158,0.479,85.162,0.486,85.167z
		 M0.372,85.04c0.01,0.011,0.021,0.023,0.031,0.034c-0.001,0-0.003,0-0.004-0.001C0.39,85.062,0.381,85.051,0.372,85.04z
		 M3.217,88.375c2.808,3.507,4.778,6.736,5.912,9.685c1.993,5.188,1.396,9.511-1.789,12.972c-0.869,0.944-1.931,1.824-3.186,2.64
		c-1.142,0.742-2.443,1.432-3.905,2.067c6.622-8.014,8.034-16.089,4.236-24.223c-0.961-2.059-2.256-4.121-3.884-6.187
		c0.028,0.02,0.056,0.039,0.083,0.058C1.594,86.405,2.438,87.401,3.217,88.375z"/>
	<path fill-rule="evenodd" clip-rule="evenodd" fill="#FF3399" d="M4.342,86.432c9.498,2.764,17.148,3.032,22.952,0.804
		c-1.255,0.815-2.317,1.695-3.187,2.64c-4.217,1.773-8.699,1.955-13.444,0.546c-2.24-0.666-4.539-1.685-6.896-3.059
		c-1.017-0.592-2.044-1.251-3.082-1.975c-0.028-0.02-0.056-0.039-0.083-0.058c-0.031-0.021-0.062-0.043-0.092-0.065
		c-0.046-0.032-0.093-0.064-0.139-0.097c0.033,0.011,0.066,0.022,0.1,0.034c0.014,0.005,0.028,0.01,0.042,0.015
		c0.009,0.003,0.018,0.006,0.026,0.009c0.046,0.016,0.092,0.032,0.139,0.048C1.929,85.699,3.15,86.085,4.342,86.432z"/>
	<path fill-rule="evenodd" clip-rule="evenodd" d="M27.294,87.236c1.142-0.743,2.443-1.432,3.905-2.068
		c-6.622,8.014-8.034,16.088-4.236,24.223c1.006,2.155,2.377,4.313,4.114,6.477c-0.01-0.011-0.02-0.022-0.03-0.033
		c-0.028-0.032-0.057-0.063-0.084-0.095c0.004,0.003,0.01,0.006,0.015,0.009c-0.017-0.02-0.034-0.041-0.052-0.061
		c-0.005-0.002-0.01-0.003-0.016-0.004c-0.049-0.055-0.098-0.11-0.147-0.164c-0.918-1.028-1.77-2.033-2.557-3.017
		c-2.794-3.497-4.756-6.716-5.886-9.657c-1.992-5.187-1.396-9.51,1.788-12.97C24.978,88.931,26.039,88.051,27.294,87.236z"/>
</g>
</svg>
