<?xml version="1.0" encoding="utf-8"?>
<!-- Generator: Adobe Illustrator 16.0.0, SVG Export Plug-In . SVG Version: 6.00 Build 0)  -->
<!DOCTYPE svg PUBLIC "-//W3C//DTD SVG 1.1//EN" "http://www.w3.org/Graphics/SVG/1.1/DTD/svg11.dtd">
<svg version="1.1" id="Layer_4" xmlns="http://www.w3.org/2000/svg" xmlns:xlink="http://www.w3.org/1999/xlink" x="0px" y="0px"
	 width="32px" height="126.5px" viewBox="0 0 32 126.5" enable-background="new 0 0 32 126.5" xml:space="preserve">
<g>
	<path fill-rule="evenodd" clip-rule="evenodd" fill="#6633FF" d="M28.968,28.527c0.023,0.026,0.047,0.053,0.071,0.08
		c-1.082-0.246-2.18-0.625-3.294-1.136c0.997,0.29,2.019,0.614,3.064,0.97C28.862,28.47,28.915,28.499,28.968,28.527z
		 M29.015,28.554c0.051,0.027,0.102,0.054,0.151,0.08c-0.039-0.008-0.079-0.017-0.118-0.026
		C29.037,28.59,29.026,28.572,29.015,28.554z M3.366,2.834C3.373,2.843,3.38,2.853,3.388,2.862c-0.002,0-0.004-0.001-0.006-0.001
		C3.376,2.852,3.371,2.843,3.366,2.834z M3.443,2.93C3.457,2.947,3.47,2.965,3.484,2.982C3.473,2.979,3.46,2.974,3.449,2.97
		C3.438,2.952,3.427,2.934,3.416,2.915C3.424,2.92,3.434,2.924,3.443,2.93z M6.809,8.254C5.71,6.608,4.602,4.864,3.482,3.022
		c0.025,0.018,0.051,0.037,0.077,0.055C4.921,4.806,6.005,6.532,6.809,8.254z M20.45,24.13c-3.138-2.496-6.39-5.963-9.755-10.399
		c-0.949-2.468-2.598-5.17-4.948-8.105c9.028,10.503,15.852,17.524,20.471,21.061C24.246,25.539,22.323,24.686,20.45,24.13z"/>
	<path fill-rule="evenodd" clip-rule="evenodd" fill="#FF0000" d="M6.208,4.779c1.973,1.15,3.897,2.002,5.771,2.56
		c3.138,2.496,6.39,5.962,9.755,10.397c0.945,2.461,2.588,5.156,4.926,8.082C17.641,15.326,10.823,8.312,6.208,4.779z
		 M26.218,26.687c0.852,0.497,1.713,1.049,2.583,1.656c0.041,0.045,0.082,0.091,0.123,0.137c-0.038-0.014-0.077-0.027-0.116-0.04
		c-1.045-0.356-2.067-0.68-3.064-0.97c-7.95-2.315-14.354-2.539-19.212-0.673c1.051-0.683,1.939-1.419,2.667-2.21
		c3.53-1.484,7.28-1.636,11.251-0.457C22.323,24.686,24.246,25.539,26.218,26.687z M25.62,23.213
		c1.099,1.646,2.208,3.391,3.33,5.234c0.038,0.026,0.076,0.053,0.113,0.08c-0.027-0.009-0.055-0.019-0.082-0.029
		c0.011,0.019,0.022,0.038,0.033,0.056c0.011,0.018,0.022,0.036,0.033,0.054c0.005,0.009,0.011,0.018,0.016,0.026
		C27.61,26.824,26.462,25.017,25.62,23.213z M3.388,2.862c0.001,0,0.002,0,0.004,0.001C4.475,3.108,5.574,3.487,6.688,4
		C5.69,3.709,4.668,3.386,3.623,3.03C3.568,2.999,3.515,2.969,3.461,2.94C3.456,2.937,3.449,2.933,3.443,2.93
		C3.434,2.924,3.424,2.92,3.416,2.915C3.365,2.888,3.314,2.86,3.264,2.834C3.303,2.843,3.342,2.852,3.382,2.86
		C3.384,2.861,3.386,2.861,3.388,2.862z"/>
	<path fill-rule="evenodd" clip-rule="evenodd" fill="#FF9900" d="M3.461,2.94c0.015,0.017,0.03,0.033,0.045,0.05
		C3.499,2.987,3.492,2.985,3.484,2.982C3.47,2.965,3.457,2.947,3.443,2.93C3.449,2.933,3.456,2.937,3.461,2.94z M3.366,2.834
		c0.009,0.009,0.017,0.019,0.026,0.028c-0.001,0-0.002,0-0.004-0.001C3.38,2.853,3.373,2.843,3.366,2.834z M5.747,5.625
		c2.35,2.935,3.999,5.638,4.948,8.105c1.668,4.341,1.169,7.96-1.497,10.856c-0.728,0.791-1.616,1.527-2.667,2.21
		c-0.956,0.621-2.045,1.198-3.268,1.73C8.806,21.82,9.988,15.062,6.809,8.254c-0.804-1.723-1.888-3.449-3.25-5.177
		c0.023,0.016,0.047,0.032,0.07,0.048C4.388,3.977,5.094,4.81,5.747,5.625z"/>
	<path fill-rule="evenodd" clip-rule="evenodd" fill="#FF3399" d="M6.688,4c7.949,2.313,14.352,2.538,19.209,0.672
		c-1.051,0.683-1.939,1.419-2.667,2.209c-3.529,1.484-7.28,1.636-11.251,0.457c-1.875-0.557-3.799-1.41-5.771-2.56
		c-0.851-0.496-1.71-1.047-2.58-1.653c-0.023-0.016-0.046-0.032-0.07-0.048C3.533,3.059,3.507,3.041,3.482,3.022
		C3.443,2.996,3.404,2.969,3.366,2.941C3.394,2.951,3.421,2.96,3.449,2.97C3.46,2.974,3.473,2.979,3.484,2.982
		C3.492,2.985,3.499,2.987,3.506,2.99c0.039,0.013,0.077,0.027,0.116,0.04C4.668,3.386,5.69,3.709,6.688,4z"/>
	<path fill-rule="evenodd" clip-rule="evenodd" d="M25.897,4.672c0.956-0.622,2.045-1.198,3.268-1.73
		c-5.542,6.707-6.724,13.464-3.545,20.272c0.842,1.804,1.99,3.61,3.443,5.42c-0.008-0.009-0.017-0.018-0.025-0.027
		c-0.024-0.026-0.047-0.053-0.071-0.08c0.003,0.003,0.008,0.005,0.012,0.007c-0.014-0.017-0.029-0.034-0.043-0.051
		c-0.004-0.001-0.008-0.003-0.013-0.003c-0.041-0.046-0.082-0.092-0.123-0.137c-0.769-0.86-1.481-1.701-2.14-2.525
		c-2.338-2.926-3.981-5.621-4.926-8.082c-1.667-4.34-1.169-7.958,1.496-10.854C23.958,6.091,24.847,5.354,25.897,4.672z"/>
</g>
</svg>
