<?xml version="1.0" standalone="no"?>
<!DOCTYPE svg PUBLIC "-//W3C//DTD SVG 20010904//EN"
 "http://www.w3.org/TR/2001/REC-SVG-20010904/DTD/svg10.dtd">
<svg version="1.0" xmlns="http://www.w3.org/2000/svg"
 width="1100.000000pt" height="1100.000000pt" viewBox="0 0 1100.000000 1100.000000"
 preserveAspectRatio="xMidYMid meet">
<metadata>
Created by potrace 1.11, written by Peter Selinger 2001-2013
</metadata>
<g transform="translate(0.000000,1100.000000) scale(0.100000,-0.100000)"
fill="#000000" stroke="none">
<path d="M3551 9015 c5 -22 12 -51 14 -65 3 -14 7 -35 10 -47 3 -13 6 -25 6
-28 0 -2 7 -31 14 -62 7 -32 16 -74 19 -93 3 -19 8 -46 11 -60 3 -14 7 -43 10
-65 3 -22 7 -47 10 -55 2 -8 7 -37 10 -65 3 -27 7 -61 10 -75 4 -22 10 -78 21
-180 2 -19 6 -66 9 -105 2 -38 5 -70 5 -70 0 0 3 -31 6 -70 12 -175 5 -685
-11 -800 -3 -16 -7 -57 -10 -90 -3 -33 -7 -76 -10 -95 -3 -19 -7 -55 -10 -80
-3 -25 -7 -58 -10 -75 -6 -38 -16 -93 -21 -125 -7 -38 -33 -172 -39 -200 -3
-14 -7 -36 -10 -50 -3 -14 -19 -79 -35 -145 -38 -152 -36 -142 -51 -195 -7
-25 -13 -47 -13 -50 -1 -3 -4 -9 -7 -15 -5 -8 -19 -54 -23 -75 -1 -3 -5 -11
-9 -17 -5 -7 -6 -13 -3 -13 6 0 -73 -228 -129 -370 -78 -199 -206 -483 -263
-582 -11 -20 -18 -39 -15 -42 4 -3 1 -6 -5 -6 -7 0 -12 -5 -12 -11 0 -9 -111
-215 -147 -274 -7 -11 -16 -28 -19 -37 -3 -10 -10 -18 -15 -18 -5 0 -9 -5 -9
-10 0 -10 -188 -319 -200 -330 -3 -3 -20 -27 -38 -55 -18 -27 -39 -60 -48 -72
-19 -26 -98 -139 -116 -167 -7 -10 -46 -62 -86 -115 -100 -132 -104 -138 -184
-237 -18 -22 -46 -57 -63 -78 -16 -21 -38 -48 -49 -60 -10 -11 -35 -41 -55
-66 -20 -25 -43 -52 -51 -60 -9 -8 -28 -31 -44 -50 -248 -302 -810 -862 -1216
-1210 -19 -16 -29 -30 -22 -30 6 0 12 3 12 8 0 4 26 23 58 41 31 19 59 37 62
41 3 4 12 9 20 13 8 4 33 18 55 31 65 41 292 151 400 194 155 62 228 88 385
133 80 23 152 44 160 47 8 3 20 6 25 7 6 1 12 3 15 4 3 2 13 4 24 6 10 2 39 9
65 15 25 6 55 12 66 14 11 2 49 11 85 19 36 8 81 18 100 21 19 3 46 8 60 11
14 3 39 7 55 10 17 3 41 7 55 10 32 6 73 12 130 20 25 3 52 8 60 10 14 4 89
14 150 20 14 2 43 5 65 9 22 3 66 8 97 11 101 10 142 14 198 20 59 7 128 12
255 20 44 2 109 7 145 9 185 14 453 20 895 20 444 0 643 -5 940 -20 55 -3 141
-7 190 -10 143 -6 383 -21 485 -30 41 -3 93 -7 115 -9 139 -11 206 -16 250
-20 28 -3 82 -7 120 -10 39 -4 90 -8 115 -11 25 -2 70 -7 100 -9 30 -3 80 -7
110 -10 30 -3 75 -7 100 -10 72 -6 152 -15 190 -20 19 -2 62 -7 95 -10 86 -9
124 -13 180 -20 28 -3 66 -8 85 -10 39 -4 115 -13 175 -21 42 -5 93 -11 160
-19 22 -2 56 -6 75 -9 19 -2 58 -7 85 -11 28 -3 64 -8 82 -11 17 -2 53 -7 80
-9 26 -3 57 -7 68 -9 30 -5 93 -15 150 -21 28 -3 66 -9 85 -12 19 -3 42 -6 50
-7 8 -1 42 -6 75 -11 33 -4 69 -9 80 -10 11 -1 20 -3 20 -4 0 -2 18 -4 40 -7
22 -2 67 -8 100 -14 33 -5 78 -12 100 -14 22 -3 51 -8 65 -10 14 -3 45 -7 70
-11 25 -3 72 -10 105 -15 33 -5 80 -12 105 -15 25 -3 56 -8 70 -10 14 -2 54
-9 90 -14 36 -6 74 -13 85 -15 11 -2 56 -9 100 -16 44 -7 87 -13 95 -15 28 -5
105 -18 125 -21 63 -9 121 -18 236 -38 71 -12 129 -20 129 -17 0 4 -28 17 -63
30 -139 53 -476 225 -493 252 -3 5 -9 7 -13 4 -5 -2 -16 4 -26 15 -10 11 -22
20 -27 20 -20 0 -530 356 -558 389 -3 3 -23 19 -45 35 -22 17 -49 38 -60 47
-11 10 -76 64 -145 120 -69 57 -127 105 -130 109 -3 3 -34 30 -70 60 -35 30
-74 64 -86 75 -11 11 -54 49 -94 85 -225 201 -607 573 -870 847 -192 201 -401
421 -466 493 -97 108 -128 142 -154 172 -14 16 -53 58 -86 93 -34 36 -59 65
-57 65 3 0 -8 12 -24 28 -15 15 -71 76 -123 137 -52 60 -106 122 -120 136 -14
15 -45 51 -70 80 -25 29 -65 76 -89 104 -24 27 -65 75 -92 105 -40 46 -83 98
-182 216 -6 8 -21 25 -32 37 -11 12 -37 44 -58 69 -21 26 -44 53 -50 60 -7 7
-37 42 -66 77 -29 35 -58 70 -64 76 -7 6 -21 24 -32 39 -11 16 -32 41 -47 56
-16 16 -28 33 -28 38 0 6 -4 12 -8 14 -4 2 -61 68 -126 148 -65 80 -136 165
-156 190 -30 35 -164 202 -313 390 -7 8 -23 29 -37 46 -14 17 -38 48 -55 69
-16 21 -35 43 -40 49 -6 6 -22 27 -35 46 -13 19 -27 37 -30 40 -3 3 -33 39
-65 80 -32 41 -61 77 -64 80 -4 3 -28 34 -56 70 -27 36 -52 67 -55 70 -3 3
-32 41 -65 85 -33 44 -62 82 -65 85 -3 3 -21 26 -40 53 -18 26 -37 47 -41 47
-4 0 -10 8 -13 18 -3 9 -16 28 -28 42 -13 14 -43 52 -68 85 -37 49 -154 202
-203 265 -7 9 -46 61 -87 115 -41 55 -77 102 -80 105 -18 17 -70 90 -70 99 0
5 -4 11 -8 13 -4 2 -37 41 -72 88 -35 47 -69 90 -75 97 -29 34 -35 43 -35 48
0 2 -9 15 -19 27 -11 13 -29 34 -40 48 l-20 25 10 -40z m729 -1515 c17 -33 30
-62 30 -65 -1 -8 210 -434 242 -488 15 -26 28 -54 28 -62 0 -7 3 -15 8 -17 4
-1 43 -68 86 -148 43 -80 86 -153 95 -164 9 -10 14 -19 12 -20 -3 0 2 -12 11
-26 31 -47 158 -263 158 -267 0 -2 5 -9 10 -16 6 -7 68 -100 139 -207 128
-195 278 -412 303 -440 7 -8 26 -32 42 -55 16 -22 33 -41 38 -43 4 -2 8 -8 8
-13 0 -9 206 -272 274 -349 17 -20 49 -57 71 -84 22 -27 49 -58 60 -70 11 -12
52 -58 90 -101 174 -195 459 -480 656 -656 140 -125 322 -279 389 -329 18 -14
38 -30 44 -36 6 -6 49 -39 96 -73 47 -35 87 -66 90 -70 3 -3 32 -24 64 -46 33
-22 64 -44 70 -50 6 -6 79 -55 161 -110 83 -55 152 -103 153 -107 2 -5 8 -8
13 -8 4 0 43 -23 86 -50 42 -28 117 -74 165 -103 117 -69 114 -67 188 -108
136 -76 187 -103 245 -132 33 -16 63 -34 66 -39 3 -5 9 -9 13 -8 3 0 43 -17
89 -39 81 -40 73 -44 -33 -13 -30 8 -62 17 -71 18 -9 2 -79 19 -155 38 -150
36 -264 63 -304 70 -14 2 -32 7 -40 10 -8 3 -28 7 -45 10 -16 2 -55 9 -85 16
-30 6 -68 13 -85 16 -40 6 -174 32 -205 39 -14 3 -45 7 -70 10 -25 2 -45 5
-45 5 0 1 -13 4 -30 6 -16 3 -55 9 -85 15 -30 6 -68 12 -85 14 -16 2 -46 6
-65 9 -19 3 -55 7 -80 10 -67 8 -120 15 -165 20 -22 3 -59 8 -82 11 -106 13
-127 15 -200 21 -105 8 -139 11 -201 18 -48 5 -121 10 -302 21 -236 14 -417
18 -805 18 -242 0 -453 0 -470 -1 -16 -1 -37 -2 -45 -2 -18 1 -177 -7 -303
-14 -51 -3 -135 -8 -187 -11 -95 -6 -190 -13 -265 -20 -22 -2 -71 -6 -110 -9
-38 -4 -89 -8 -112 -10 -22 -3 -70 -7 -105 -10 -61 -6 -101 -10 -183 -21 -22
-3 -60 -7 -85 -10 -168 -18 -272 -31 -320 -40 -14 -3 -45 -7 -70 -10 -25 -2
-54 -6 -66 -9 -22 -4 -106 -16 -159 -22 -16 -1 -30 -3 -30 -4 0 -3 -67 -14
-155 -25 -14 -2 -25 -4 -25 -5 0 -1 -11 -3 -25 -5 -14 -2 -41 -6 -60 -9 -19
-4 -46 -8 -60 -10 -62 -11 -104 -18 -124 -22 -20 -4 -44 -8 -106 -18 -14 -2
-45 -9 -70 -14 -25 -6 -63 -13 -86 -17 -22 -3 -55 -9 -72 -14 -17 -5 -33 -7
-36 -4 -2 3 -10 1 -17 -3 -19 -11 -75 -16 -64 -6 6 5 55 42 110 83 107 79 125
93 161 124 12 11 34 29 49 39 14 11 34 27 44 35 10 9 45 39 77 66 32 28 80 70
108 95 74 65 434 428 481 485 22 27 49 58 60 69 11 12 54 64 95 116 41 52 80
101 87 108 7 7 13 17 13 20 0 4 16 25 35 47 19 22 35 43 35 47 0 4 6 13 13 20
7 7 35 47 62 88 28 41 53 77 58 78 4 2 7 8 7 13 0 6 23 43 50 84 28 41 50 76
50 79 0 2 21 40 46 83 116 195 283 556 356 768 11 33 25 66 31 73 5 6 7 12 3
12 -3 0 -1 12 5 28 26 64 95 300 105 357 3 17 10 37 14 45 4 8 11 33 14 55 4
22 11 56 16 75 5 20 16 71 24 115 9 44 18 94 21 110 3 17 8 44 10 60 2 17 6
41 9 54 3 13 8 49 12 80 3 31 8 65 10 76 3 11 7 40 9 65 2 25 7 68 10 95 17
147 26 331 28 567 1 115 3 208 4 208 2 0 16 -27 33 -60z"/>
<path d="M9868 8892 c-47 -149 -75 -243 -103 -347 -15 -55 -33 -121 -41 -148
-7 -26 -13 -49 -14 -52 0 -3 0 -6 -1 -7 -1 -5 -8 -32 -12 -53 -41 -181 -69
-307 -71 -327 -1 -13 -6 -29 -10 -36 -4 -7 -5 -12 -2 -12 2 0 0 -15 -5 -32 -5
-18 -12 -53 -15 -78 -3 -25 -8 -54 -11 -65 -2 -11 -8 -49 -14 -85 -5 -36 -12
-76 -14 -90 -9 -49 -13 -76 -20 -135 -4 -33 -9 -71 -11 -85 -4 -25 -14 -111
-19 -160 -1 -14 -5 -52 -9 -85 -42 -410 -50 -898 -21 -1385 7 -129 15 -226 20
-260 6 -42 17 -142 20 -190 6 -64 16 -155 21 -180 3 -14 7 -41 9 -60 2 -19 6
-48 9 -65 3 -16 8 -48 11 -70 3 -22 10 -62 15 -90 6 -27 12 -63 14 -80 3 -16
9 -57 16 -90 6 -33 13 -75 15 -94 3 -18 7 -37 10 -41 3 -4 7 -23 9 -41 3 -19
10 -56 16 -84 6 -27 13 -57 15 -65 2 -8 11 -46 20 -85 22 -91 27 -117 29 -135
1 -9 5 -21 10 -28 4 -6 4 -12 0 -12 -3 0 -1 -7 6 -15 7 -8 10 -15 7 -15 -3 0
-1 -15 4 -32 6 -18 12 -44 15 -58 3 -14 12 -48 20 -76 8 -28 16 -60 19 -70 2
-11 16 -59 30 -109 15 -49 30 -103 35 -120 4 -16 16 -55 25 -85 10 -30 18 -59
20 -65 1 -5 5 -17 8 -25 4 -8 31 -89 61 -180 49 -147 104 -304 135 -383 6 -15
13 -27 16 -27 3 0 -1 16 -9 35 -8 19 -13 35 -11 35 3 0 0 11 -5 25 -5 14 -12
36 -14 48 -3 12 -17 72 -31 132 -14 61 -30 133 -35 160 -4 28 -13 70 -18 95
-6 25 -13 61 -16 80 -3 19 -7 44 -10 55 -6 30 -16 96 -21 130 -2 17 -7 46 -10
65 -8 42 -10 58 -20 135 -4 33 -9 71 -11 85 -2 14 -6 50 -9 80 -3 30 -7 65
-10 78 -2 12 -7 55 -10 95 -3 40 -8 90 -11 112 -3 22 -7 65 -9 95 -2 30 -4 55
-5 55 0 0 -3 23 -5 50 -2 28 -6 86 -10 130 -12 150 -16 220 -15 240 2 24 1 26
-4 95 -6 67 -15 256 -23 495 -3 99 -6 470 -7 825 0 667 5 902 29 1495 3 72 8
180 10 240 2 61 7 148 9 195 3 47 8 141 12 210 3 69 7 154 10 190 2 36 6 107
9 159 7 153 15 263 21 273 3 4 2 8 -3 8 -4 0 -20 -40 -35 -88z"/>
<path d="M4929 8948 c5 -13 28 -77 51 -143 23 -66 48 -134 56 -152 8 -17 14
-37 14 -45 0 -8 4 -18 9 -23 5 -6 20 -41 34 -80 27 -74 49 -130 73 -182 8 -17
14 -34 14 -38 0 -3 8 -25 19 -48 10 -23 28 -62 38 -87 11 -25 49 -110 84 -190
80 -181 318 -664 330 -668 5 -2 9 -11 9 -21 0 -9 11 -32 24 -51 13 -19 36 -61
51 -92 16 -32 32 -58 37 -58 4 0 8 -9 8 -20 0 -11 5 -20 10 -20 6 0 10 -5 10
-11 0 -6 33 -65 72 -132 40 -67 79 -133 86 -147 7 -14 20 -32 28 -41 8 -8 14
-18 14 -22 0 -6 144 -235 160 -254 5 -7 10 -17 10 -23 0 -5 5 -10 10 -10 6 0
10 -6 10 -14 0 -7 7 -20 16 -27 9 -7 20 -22 25 -34 22 -51 350 -508 476 -664
16 -18 32 -41 37 -50 5 -9 12 -18 15 -21 4 -3 25 -27 46 -55 74 -93 179 -220
230 -280 19 -22 44 -51 56 -65 11 -14 46 -54 77 -89 31 -35 64 -72 72 -81 160
-183 562 -596 720 -740 19 -18 64 -60 100 -94 87 -81 151 -138 234 -211 38
-33 79 -69 92 -80 32 -29 115 -100 144 -124 26 -22 80 -67 116 -98 12 -10 36
-29 54 -43 18 -14 42 -33 54 -43 11 -10 34 -28 49 -40 15 -12 67 -53 115 -90
48 -38 94 -74 102 -80 37 -29 289 -215 320 -237 19 -13 37 -27 40 -30 3 -4 28
-21 55 -40 28 -18 80 -55 116 -82 37 -26 71 -48 77 -48 6 0 12 -4 14 -9 2 -4
68 -52 148 -104 80 -53 154 -103 165 -112 10 -8 23 -15 27 -15 5 0 18 -9 30
-20 12 -11 34 -26 50 -32 15 -7 28 -16 28 -20 0 -5 6 -8 14 -8 7 0 19 -7 26
-15 7 -8 19 -15 28 -15 9 0 -13 21 -49 47 -35 26 -66 50 -69 53 -3 3 -41 35
-85 70 -44 36 -85 69 -91 75 -6 5 -33 28 -60 50 -44 36 -125 109 -179 160 -12
11 -53 47 -91 80 -88 76 -625 613 -724 724 -41 46 -91 100 -110 120 -85 90
-239 262 -296 331 -16 19 -36 42 -44 50 -23 25 -91 102 -136 156 -202 240
-275 327 -314 374 -25 30 -47 57 -50 60 -24 22 -90 110 -90 119 0 6 -4 11 -8
11 -5 0 -36 35 -70 78 -34 42 -72 89 -84 104 -13 14 -32 39 -43 54 -11 15 -38
50 -61 78 -22 28 -77 98 -122 156 -45 58 -91 116 -102 130 -31 37 -215 280
-372 490 -76 102 -141 190 -146 195 -4 6 -18 26 -32 45 -13 19 -27 37 -30 40
-3 3 -26 33 -49 68 -24 34 -48 62 -52 62 -5 0 -9 5 -9 12 0 9 -69 107 -90 128
-3 3 -9 13 -15 22 -5 9 -55 79 -110 155 -55 76 -111 154 -124 173 -13 19 -26
37 -30 40 -3 3 -10 12 -16 22 -26 43 -220 313 -227 316 -4 2 -8 9 -8 16 0 7
-9 21 -20 31 -11 10 -20 24 -20 31 0 7 -3 14 -7 16 -5 2 -17 17 -29 33 -11 17
-41 59 -66 95 -187 268 -256 369 -261 384 -4 9 -11 16 -17 16 -5 0 -10 4 -10
10 0 11 -62 103 -72 108 -5 2 -8 8 -8 13 0 5 -34 56 -75 114 -41 58 -75 109
-75 113 0 5 -8 17 -18 28 -10 10 -29 37 -42 59 -13 22 -26 42 -29 45 -4 3 -60
86 -126 185 -66 99 -122 182 -125 185 -3 3 -11 17 -19 33 -17 32 -34 36 -22 5z"/>
<path d="M7435 8393 c6 -94 20 -238 30 -328 3 -22 7 -60 10 -85 9 -81 16 -134
25 -185 5 -27 12 -72 15 -100 3 -27 8 -59 10 -70 10 -42 17 -81 21 -115 2 -19
11 -69 20 -110 8 -41 17 -86 20 -100 2 -14 11 -52 19 -85 8 -33 17 -71 19 -85
20 -95 29 -130 62 -255 20 -77 37 -144 38 -150 5 -20 48 -163 83 -270 19 -60
36 -114 37 -120 2 -5 6 -17 9 -25 3 -8 24 -69 47 -134 22 -66 52 -148 65 -183
62 -158 77 -194 118 -293 118 -280 303 -659 425 -870 14 -25 25 -47 25 -50 0
-3 8 -17 18 -32 10 -14 19 -31 19 -37 0 -6 3 -11 8 -11 10 0 42 -58 42 -76 0
-8 5 -14 11 -14 5 0 15 -13 20 -30 6 -16 15 -30 20 -30 5 0 9 -5 9 -11 0 -7
16 -36 35 -65 19 -29 35 -55 35 -59 0 -3 5 -11 10 -18 13 -15 220 -329 220
-334 0 -1 7 -11 15 -20 8 -10 56 -76 107 -148 50 -71 96 -134 100 -140 5 -5
28 -35 51 -66 84 -111 92 -122 109 -143 10 -11 21 -26 25 -31 33 -43 146 -183
177 -218 10 -12 35 -42 55 -67 20 -24 43 -51 51 -60 8 -9 35 -40 60 -69 25
-29 54 -63 65 -76 11 -12 49 -54 85 -94 106 -119 111 -123 115 -119 2 2 -8 18
-23 35 -38 45 -139 183 -202 278 -30 44 -57 82 -60 85 -3 3 -10 14 -17 25 -6
11 -43 70 -81 130 -38 61 -77 126 -88 145 -10 19 -22 37 -26 38 -5 2 -8 10 -8
18 0 8 -3 14 -7 14 -5 0 -13 10 -19 23 -10 22 -89 163 -134 242 -69 119 -359
693 -440 870 -13 28 -42 91 -65 140 -23 50 -57 124 -75 165 -18 41 -43 97 -56
124 -13 28 -24 56 -24 63 0 7 -4 13 -10 13 -5 0 -10 7 -10 15 0 8 -4 23 -10
33 -5 9 -21 46 -36 82 -14 36 -34 83 -44 105 -26 59 -113 267 -154 370 -20 50
-41 98 -46 107 -6 10 -10 25 -10 33 0 8 -5 15 -10 15 -6 0 -9 3 -8 8 2 8 -34
107 -57 159 -8 17 -15 34 -15 37 0 4 -7 23 -16 44 -10 20 -18 42 -19 47 -2 6
-16 44 -33 85 -29 73 -200 525 -206 545 -2 6 -4 13 -5 18 0 4 -8 21 -17 38 -8
17 -17 38 -19 47 -2 10 -36 105 -75 212 -72 194 -167 461 -175 490 -6 21 -44
132 -52 150 -3 8 -5 18 -5 23 1 4 -3 7 -10 7 -6 0 -9 2 -6 6 3 3 -24 89 -59
192 -36 103 -68 199 -71 215 -2 15 -8 30 -13 33 -5 3 -9 11 -9 19 0 8 -5 26
-12 42 -6 15 -10 33 -9 40 1 6 -3 14 -9 18 -7 4 -9 -16 -5 -62z"/>
<path d="M10171 2566 c2 -2 15 -9 29 -15 24 -11 24 -11 6 3 -16 13 -49 24 -35
12z"/>
</g>
</svg>
