<?xml version="1.0" standalone="no"?>
<!DOCTYPE svg PUBLIC "-//W3C//DTD SVG 20010904//EN"
 "http://www.w3.org/TR/2001/REC-SVG-20010904/DTD/svg10.dtd">
<svg version="1.0" xmlns="http://www.w3.org/2000/svg"
 width="683.000000pt" height="683.000000pt" viewBox="0 0 683.000000 683.000000"
 preserveAspectRatio="xMidYMid meet">
<metadata>
Created by potrace 1.11, written by Peter Selinger 2001-2013
</metadata>
<g transform="translate(0.000000,683.000000) scale(0.100000,-0.100000)"
fill="#000000" stroke="none">
<path d="M2012 5955 c16 -29 104 -322 114 -380 3 -16 10 -38 15 -47 5 -10 8
-18 5 -18 -3 0 1 -21 9 -47 7 -27 18 -75 25 -108 6 -33 15 -78 20 -100 5 -22
12 -58 14 -80 3 -22 8 -51 11 -65 3 -14 7 -47 10 -75 3 -27 8 -63 10 -80 4
-29 14 -134 21 -225 5 -61 4 -423 -1 -485 -13 -167 -28 -295 -41 -360 -3 -11
-7 -36 -10 -55 -3 -19 -7 -42 -9 -50 -2 -8 -7 -31 -10 -50 -18 -112 -125 -474
-176 -595 -7 -16 -13 -32 -14 -35 -15 -44 -78 -183 -144 -315 -73 -148 -263
-471 -291 -495 -3 -3 -17 -23 -30 -45 -13 -22 -27 -42 -30 -45 -3 -3 -17 -21
-30 -40 -32 -46 -247 -318 -274 -346 -6 -6 -36 -40 -66 -75 -139 -162 -540
-547 -723 -693 -26 -22 -45 -41 -42 -45 3 -3 9 0 13 6 4 6 50 36 102 67 52 31
102 61 110 66 48 29 215 110 227 110 7 0 13 5 13 10 0 6 8 10 18 10 10 0 22 4
28 8 7 7 167 74 184 78 3 0 12 4 20 7 21 9 261 88 280 92 8 2 76 19 150 38
119 31 183 46 270 62 14 3 38 7 53 11 16 3 38 7 50 9 12 1 49 7 82 13 67 12
94 16 210 31 44 5 103 13 130 16 28 4 68 8 90 10 22 2 74 6 115 10 151 13 178
14 340 21 342 15 986 4 1275 -21 28 -2 86 -7 130 -10 44 -3 98 -7 120 -10 52
-5 159 -15 212 -20 37 -3 75 -7 198 -20 38 -5 95 -11 160 -20 17 -2 57 -6 90
-10 33 -4 74 -9 90 -11 17 -3 48 -7 70 -9 22 -3 51 -7 65 -10 14 -3 45 -7 70
-10 25 -3 56 -7 70 -10 14 -3 45 -7 70 -10 25 -3 70 -9 100 -15 30 -5 75 -12
100 -15 24 -4 47 -8 50 -10 3 -2 34 -6 70 -10 35 -3 68 -9 72 -11 4 -3 26 -7
49 -9 23 -2 49 -7 58 -9 9 -3 34 -8 56 -11 23 -3 52 -8 65 -10 29 -6 173 -32
245 -45 63 -11 103 -18 135 -25 14 -3 45 -8 70 -12 25 -3 53 -10 63 -15 9 -5
17 -5 17 -1 0 4 -42 23 -93 42 -140 51 -449 205 -499 249 -10 8 -18 12 -18 9
0 -14 -536 355 -570 392 -3 4 -27 24 -55 45 -51 40 -211 173 -231 191 -6 6
-39 35 -74 65 -239 207 -649 612 -917 906 -120 133 -182 202 -208 232 -16 20
-37 43 -45 52 -8 9 -42 47 -75 85 -33 39 -64 75 -70 81 -5 6 -28 32 -50 59
-22 26 -45 53 -50 59 -6 6 -42 49 -80 96 -38 47 -72 87 -76 90 -7 6 -360 449
-399 500 -14 18 -30 38 -35 44 -12 12 -255 332 -359 471 -37 50 -76 101 -86
115 -11 14 -84 115 -164 225 -80 110 -149 205 -153 210 -5 6 -35 48 -68 95
-177 254 -262 372 -243 335z m1103 -2675 c34 -67 150 -257 165 -270 3 -3 30
-36 59 -75 124 -161 362 -374 581 -520 131 -87 139 -92 170 -107 14 -7 27 -15
30 -18 3 -3 35 -22 72 -40 38 -19 68 -39 68 -43 0 -4 -8 -4 -17 2 -20 10 -301
75 -373 86 -25 4 -54 9 -64 11 -32 6 -166 23 -236 31 -86 9 -453 9 -560 0
-128 -11 -287 -37 -438 -73 -35 -9 -66 -14 -68 -12 -2 2 24 24 58 48 69 51
221 200 246 242 9 16 20 28 24 28 4 0 8 6 8 14 0 8 4 16 8 18 16 6 92 145 127
232 60 147 93 315 94 480 1 27 3 47 5 45 1 -2 20 -38 41 -79z"/>
<path d="M3363 5075 c3 -11 8 -33 12 -50 20 -86 20 -89 46 -170 11 -38 27 -90
34 -115 7 -25 27 -83 45 -130 17 -47 35 -96 40 -110 28 -86 197 -452 232 -502
11 -16 16 -28 13 -28 -3 0 2 -12 13 -27 10 -16 34 -55 52 -88 72 -131 321
-493 389 -565 9 -9 32 -37 51 -61 82 -103 291 -322 426 -447 43 -40 93 -86
109 -101 41 -38 189 -160 272 -223 37 -29 73 -57 80 -63 35 -30 43 -35 53 -35
5 0 10 -4 10 -10 0 -5 5 -10 11 -10 6 0 17 -6 24 -13 8 -6 20 -17 28 -23 12
-10 341 -226 382 -251 66 -39 199 -116 250 -144 33 -17 66 -36 73 -42 6 -5 12
-7 12 -4 0 3 -24 22 -52 43 -29 21 -55 41 -58 44 -3 3 -21 17 -40 31 -19 15
-47 37 -61 50 -15 13 -62 56 -105 94 -43 39 -144 135 -224 215 -123 124 -185
189 -325 344 -11 12 -42 48 -70 80 -27 33 -61 71 -75 87 -36 39 -92 107 -195
233 -49 61 -95 118 -102 126 -7 8 -35 44 -63 80 -28 36 -56 72 -63 80 -7 8
-64 83 -127 165 -63 83 -118 152 -122 153 -4 2 -8 8 -8 13 0 8 -15 29 -88 124
-4 6 -43 60 -87 120 -44 61 -83 115 -88 120 -4 6 -39 55 -78 110 -38 55 -75
107 -82 116 -6 8 -16 23 -22 32 -19 30 -139 202 -144 207 -3 3 -10 13 -16 22
-27 47 -280 413 -287 416 -4 2 -8 8 -8 13 0 5 -16 33 -36 62 -20 29 -34 43
-31 32z"/>
<path d="M5794 5013 c-27 -42 -51 -82 -53 -88 -2 -5 -14 -26 -27 -47 -37 -58
-114 -210 -114 -224 0 -7 -4 -14 -8 -16 -10 -4 -52 -93 -52 -111 0 -7 -4 -17
-9 -23 -26 -26 -138 -393 -156 -514 -4 -25 -9 -54 -11 -65 -29 -142 -33 -482
-8 -615 2 -14 7 -43 9 -65 8 -56 13 -82 30 -150 9 -33 17 -68 20 -78 2 -10 7
-27 10 -37 3 -10 7 -27 9 -37 5 -22 71 -203 93 -253 26 -60 137 -284 146 -295
4 -5 33 -52 65 -102 65 -106 172 -258 213 -305 l28 -32 -20 69 c-11 39 -22 77
-24 85 -7 34 -34 167 -39 195 -13 76 -28 173 -31 200 -1 17 -6 55 -9 85 -10
86 -16 139 -22 220 -3 41 -7 91 -9 110 -26 245 -26 1198 0 1700 3 47 7 132 10
190 2 58 7 144 10 193 3 48 4 87 2 87 -2 0 -26 -35 -53 -77z"/>
<path d="M4609 4809 c0 -13 -3 -46 -6 -74 -6 -62 -6 -379 1 -460 6 -67 13
-127 21 -165 3 -14 7 -41 9 -60 10 -85 63 -301 101 -415 9 -27 20 -59 24 -70
5 -11 23 -58 41 -105 157 -402 444 -823 810 -1190 129 -128 233 -227 275 -260
17 -13 18 -13 10 0 -5 8 -28 40 -51 70 -63 83 -180 267 -264 415 -48 84 -280
547 -280 558 0 3 -16 40 -36 84 -20 43 -47 102 -60 131 -13 29 -24 55 -24 58
0 3 -9 25 -20 49 -26 58 -193 475 -237 595 -78 209 -177 485 -253 709 -28 79
-52 147 -55 149 -3 3 -5 -6 -6 -19z"/>
</g>
</svg>
