<?xml version="1.0" standalone="no"?>
<!DOCTYPE svg PUBLIC "-//W3C//DTD SVG 20010904//EN"
 "http://www.w3.org/TR/2001/REC-SVG-20010904/DTD/svg10.dtd">
<svg version="1.0" xmlns="http://www.w3.org/2000/svg"
 width="700.000000pt" height="700.000000pt" viewBox="0 0 700.000000 700.000000"
 preserveAspectRatio="xMidYMid meet">
<metadata>
Created by potrace 1.11, written by Peter Selinger 2001-2013
</metadata>
<g transform="translate(0.000000,700.000000) scale(0.100000,-0.100000)"
fill="#000000" stroke="none">
<path d="M57 6929 c24 -12 40 -26 36 -32 -3 -6 -1 -7 5 -3 6 4 37 -7 69 -25
84 -46 351 -221 471 -309 57 -41 123 -88 147 -105 70 -49 420 -328 512 -408
15 -14 82 -71 148 -127 66 -56 143 -123 171 -149 28 -25 68 -62 90 -81 87 -77
250 -226 269 -245 12 -11 85 -81 165 -155 428 -402 1033 -1012 1604 -1620 150
-160 298 -319 317 -342 11 -13 44 -48 73 -78 28 -30 101 -109 161 -175 60 -66
125 -138 146 -160 39 -42 247 -273 308 -340 20 -22 70 -78 111 -125 41 -47 80
-90 85 -96 16 -18 138 -155 158 -178 10 -12 33 -37 51 -56 17 -19 80 -91 140
-160 161 -184 229 -262 246 -280 8 -8 38 -42 65 -75 28 -32 59 -68 70 -80 11
-11 31 -34 45 -50 60 -70 456 -531 465 -541 5 -6 30 -35 55 -64 25 -29 50 -58
55 -64 6 -6 73 -85 150 -176 77 -91 167 -197 200 -235 124 -145 159 -187 197
-235 22 -28 42 -50 44 -50 3 0 -207 284 -259 350 -35 43 -253 360 -316 460
-41 63 -87 134 -103 158 -15 24 -28 45 -28 47 0 3 -15 28 -34 57 -186 293
-439 811 -575 1181 -73 199 -173 543 -195 672 -2 17 -9 55 -15 85 -6 30 -13
66 -16 79 -5 26 -23 155 -29 211 -3 19 -8 67 -12 105 -11 92 -11 550 -1 645
57 525 200 967 460 1420 187 326 418 621 737 941 205 205 231 229 373 348 48
40 87 75 87 77 0 2 -28 -16 -62 -40 -149 -103 -401 -241 -620 -340 -330 -148
-874 -293 -1283 -341 -27 -3 -63 -8 -80 -10 -332 -43 -1034 -54 -1400 -21
-150 14 -185 17 -229 21 -69 5 -178 17 -199 21 -10 2 -48 6 -85 10 -37 3 -69
7 -72 9 -3 2 -34 6 -70 10 -36 4 -67 8 -70 10 -3 2 -30 6 -60 10 -30 3 -136
20 -235 37 -99 17 -189 32 -200 33 -11 2 -76 15 -145 29 -69 14 -136 27 -150
29 -14 3 -43 10 -65 15 -22 6 -56 14 -75 17 -34 6 -162 36 -490 116 -161 39
-765 207 -845 234 -22 8 -114 37 -205 65 -91 29 -192 60 -224 71 -77 25 -91
24 -39 -2z m1698 -904 c187 -87 307 -137 465 -194 110 -39 332 -108 375 -117
31 -6 55 -12 122 -28 34 -9 75 -18 90 -21 15 -2 39 -7 53 -10 14 -3 39 -7 55
-10 17 -3 53 -10 80 -15 52 -10 94 -16 180 -25 28 -3 65 -7 84 -10 193 -24
753 -25 901 -1 14 2 58 7 98 11 40 3 78 8 85 10 7 3 46 9 87 14 256 33 744
155 1009 252 64 24 75 21 23 -6 -124 -66 -373 -220 -392 -244 -3 -3 -34 -30
-70 -60 -180 -151 -315 -319 -414 -516 -166 -331 -197 -732 -89 -1170 51 -212
151 -489 242 -674 23 -46 39 -86 37 -88 -2 -2 -32 38 -67 89 -190 281 -536
718 -769 972 -219 239 -552 570 -717 714 -84 72 -152 132 -187 163 -252 224
-747 595 -1111 835 -209 137 -236 154 -245 154 -5 0 -12 5 -16 12 -4 6 -3 9 2
6 5 -3 45 -22 89 -43z"/>
<path d="M125 6850 c10 -11 20 -20 23 -20 3 0 -3 9 -13 20 -10 11 -20 20 -23
20 -3 0 3 -9 13 -20z"/>
<path d="M277 6653 c68 -93 130 -175 138 -184 7 -9 37 -52 66 -95 29 -44 55
-81 58 -84 6 -5 75 -109 194 -290 30 -47 61 -98 68 -113 7 -15 16 -27 21 -27
4 0 8 -5 8 -10 0 -6 15 -35 34 -64 134 -209 348 -629 476 -931 146 -346 285
-821 325 -1110 4 -27 8 -61 10 -75 29 -201 38 -339 36 -560 -1 -107 -3 -208
-5 -225 -2 -16 -7 -64 -11 -105 -4 -41 -9 -82 -10 -91 -2 -9 -6 -40 -10 -69
-4 -29 -9 -62 -11 -74 -2 -12 -7 -34 -10 -51 -3 -16 -12 -59 -20 -95 -9 -36
-17 -72 -19 -80 -7 -35 -28 -111 -51 -185 -226 -732 -709 -1412 -1439 -2029
-108 -92 -108 -93 10 -14 124 82 147 96 225 138 30 17 62 35 70 40 32 21 260
128 359 169 85 35 345 130 354 130 1 0 9 2 17 4 79 25 136 41 265 72 83 21
160 39 173 41 12 2 34 6 50 9 175 32 278 49 367 60 28 3 64 8 80 10 17 2 62 6
100 10 39 3 84 8 100 10 196 25 878 26 1185 0 25 -2 79 -6 120 -10 118 -9 182
-15 220 -20 48 -6 105 -13 170 -20 30 -3 66 -7 80 -10 14 -2 45 -7 70 -10 91
-12 259 -38 395 -62 50 -8 102 -17 116 -19 22 -3 451 -88 499 -99 8 -2 65 -15
125 -30 61 -14 119 -28 130 -30 111 -26 419 -104 530 -135 458 -129 756 -218
810 -240 50 -20 227 -71 232 -66 3 3 -6 8 -21 12 -14 3 -26 10 -26 15 0 5 -7
9 -16 9 -9 0 -12 5 -8 12 4 6 3 8 -3 5 -14 -9 -75 24 -275 153 -353 226 -908
664 -1308 1030 -15 14 -60 54 -101 90 -40 36 -105 95 -144 131 -38 37 -88 83
-110 104 -275 253 -992 964 -1320 1309 -93 98 -192 202 -220 231 -48 50 -273
290 -305 325 -15 16 -93 100 -220 235 -36 39 -108 117 -160 175 -52 58 -114
125 -137 150 -23 25 -51 56 -63 70 -12 14 -59 66 -104 115 -46 50 -197 218
-337 375 -139 157 -255 287 -258 290 -3 3 -35 39 -71 80 -36 41 -67 77 -70 80
-3 3 -34 39 -70 80 -36 41 -79 91 -96 110 -18 19 -100 114 -184 210 -84 96
-164 189 -179 205 -14 17 -64 75 -111 130 -47 55 -87 102 -90 105 -8 7 -585
683 -662 775 -9 11 -28 34 -43 50 -14 17 -42 51 -63 77 -20 26 -40 47 -44 48
-3 0 50 -75 119 -167z m2024 -2895 c96 -140 336 -462 417 -558 30 -36 61 -74
71 -85 25 -31 184 -219 196 -231 5 -6 48 -54 95 -105 219 -242 542 -561 754
-744 32 -27 69 -60 82 -72 55 -51 317 -265 429 -352 66 -51 127 -98 135 -104
141 -111 496 -359 718 -501 118 -76 152 -102 95 -72 -40 20 -184 86 -188 86
-3 0 -28 11 -57 24 -66 31 -125 55 -158 66 -14 5 -62 22 -107 38 -153 57 -479
149 -593 168 -14 3 -72 13 -130 24 -58 11 -130 22 -160 25 -30 3 -82 10 -115
15 -204 30 -631 33 -945 6 -64 -6 -155 -17 -170 -21 -8 -2 -37 -6 -65 -10 -80
-9 -245 -39 -390 -69 -131 -28 -466 -124 -599 -171 -54 -20 -100 -34 -102 -32
-2 2 24 18 59 37 586 314 927 754 985 1269 14 128 5 490 -13 521 -2 3 -6 26
-9 53 -4 26 -11 60 -17 75 -6 15 -10 29 -9 32 0 3 -4 26 -10 51 -6 26 -13 53
-14 60 -17 94 -157 461 -231 609 -25 50 -43 90 -41 90 2 0 41 -55 87 -122z"/>
</g>
</svg>
