<?xml version="1.0" standalone="no"?>
<!DOCTYPE svg PUBLIC "-//W3C//DTD SVG 20010904//EN"
 "http://www.w3.org/TR/2001/REC-SVG-20010904/DTD/svg10.dtd">
<svg version="1.0" xmlns="http://www.w3.org/2000/svg"
 width="700.000000pt" height="700.000000pt" viewBox="0 0 700.000000 700.000000"
 preserveAspectRatio="xMidYMid meet">
<metadata>
Created by potrace 1.11, written by Peter Selinger 2001-2013
</metadata>
<g transform="translate(0.000000,700.000000) scale(0.100000,-0.100000)"
fill="#000000" stroke="none">
<path d="M209 6791 c6 -11 19 -25 29 -30 9 -6 14 -11 10 -11 -4 0 10 -28 32
-62 21 -35 59 -97 85 -138 56 -92 63 -104 98 -157 15 -23 27 -44 27 -48 0 -3
5 -11 11 -18 11 -12 133 -208 159 -255 8 -15 17 -29 20 -32 3 -3 41 -59 84
-125 43 -66 116 -178 162 -250 47 -71 89 -129 95 -127 6 1 8 -2 4 -8 -3 -5 8
-30 24 -54 17 -25 31 -47 31 -49 0 -3 15 -38 34 -79 129 -281 271 -715 320
-983 63 -340 80 -511 80 -815 0 -284 -11 -435 -50 -665 -8 -49 -17 -103 -20
-120 -19 -110 -108 -458 -134 -520 -5 -11 -18 -51 -31 -90 -12 -38 -26 -76
-32 -82 -5 -7 -7 -13 -4 -13 5 0 -27 -87 -53 -145 -5 -11 -34 -78 -65 -150
-117 -269 -300 -598 -497 -893 -111 -167 -353 -493 -420 -567 -16 -16 -28 -33
-28 -37 0 -20 438 198 639 318 73 43 147 87 164 98 31 18 270 104 313 112 11
2 50 13 85 25 188 60 595 136 889 164 337 33 805 37 1190 11 73 -5 302 -27
337 -31 18 -3 57 -8 85 -11 29 -3 63 -7 74 -9 12 -2 48 -6 80 -10 33 -3 82
-10 109 -15 52 -10 106 -18 165 -26 19 -2 44 -6 55 -8 11 -2 38 -7 60 -11 22
-4 83 -15 135 -25 52 -11 122 -24 155 -30 33 -6 70 -13 83 -16 12 -2 32 -6 45
-8 90 -18 561 -130 657 -156 19 -6 124 -34 232 -64 108 -30 206 -60 218 -66
11 -6 26 -8 32 -4 6 4 8 3 5 -3 -3 -5 11 -15 31 -22 20 -7 55 -21 77 -31 141
-65 467 -172 625 -205 8 -2 24 -6 35 -10 19 -6 19 -6 3 8 -10 8 -14 18 -10 22
4 5 -1 5 -11 2 -10 -4 -16 -3 -12 3 3 5 -34 73 -82 150 -48 78 -96 155 -106
171 -25 44 -211 340 -272 434 -28 44 -86 132 -127 195 -41 63 -115 176 -163
250 -48 74 -104 169 -122 210 -39 85 -133 314 -133 325 0 4 -6 21 -14 38 -21
45 -100 301 -135 437 -52 202 -96 453 -118 685 -10 104 -10 574 0 690 8 98 11
123 33 270 101 677 396 1390 855 2071 73 108 231 327 266 369 4 6 40 50 78
100 39 49 78 98 87 107 10 10 16 18 13 18 -22 0 -430 -201 -565 -278 -87 -50
-105 -61 -207 -122 -32 -20 -80 -44 -108 -54 -144 -52 -186 -66 -255 -86 -41
-12 -95 -27 -120 -35 -25 -8 -61 -17 -79 -20 -19 -3 -37 -8 -41 -10 -4 -2 -21
-7 -38 -10 -18 -3 -62 -12 -99 -21 -38 -9 -77 -17 -88 -18 -11 -2 -33 -6 -50
-9 -16 -3 -48 -9 -70 -12 -22 -3 -47 -7 -55 -10 -18 -5 -65 -11 -145 -20 -33
-4 -71 -8 -85 -11 -14 -2 -56 -6 -95 -10 -38 -3 -86 -8 -105 -10 -242 -23
-915 -23 -1095 1 -16 2 -66 6 -110 10 -44 3 -93 8 -110 10 -16 2 -61 7 -100
11 -38 3 -77 7 -85 9 -14 3 -77 10 -165 21 -22 2 -51 7 -65 9 -14 2 -45 7 -70
10 -42 6 -296 48 -365 61 -258 48 -744 155 -835 184 -14 4 -50 13 -80 20 -30
6 -68 16 -85 21 -16 5 -112 32 -213 60 -100 28 -217 66 -259 86 -160 74 -542
205 -663 228 -14 3 -38 7 -53 11 -27 5 -28 4 -18 -15z m220 -155 c75 -50 197
-129 271 -175 196 -122 256 -160 278 -179 33 -27 54 -45 102 -82 48 -38 382
-316 415 -347 11 -10 54 -47 95 -83 41 -36 80 -69 86 -75 70 -64 201 -183 215
-196 33 -28 281 -263 418 -394 277 -267 821 -817 1117 -1131 22 -22 111 -116
199 -209 88 -92 171 -179 184 -194 13 -14 66 -71 117 -127 52 -55 102 -110
112 -122 19 -22 185 -203 232 -252 14 -15 47 -51 74 -81 27 -30 75 -81 106
-114 31 -33 166 -184 300 -335 133 -151 248 -279 254 -285 6 -5 38 -41 71 -80
33 -38 71 -81 85 -95 14 -15 52 -57 85 -95 33 -38 76 -87 96 -109 120 -137
195 -224 279 -321 52 -60 109 -126 126 -145 18 -19 85 -96 149 -170 65 -74
122 -134 126 -132 5 1 8 -2 7 -7 -3 -7 49 -75 87 -115 6 -6 33 -38 60 -71 28
-33 52 -62 55 -65 3 -3 32 -39 65 -80 32 -41 64 -80 70 -86 5 -6 29 -33 52
-60 23 -27 53 -62 68 -79 14 -16 56 -65 92 -107 36 -43 70 -75 76 -71 6 3 7 1
3 -5 -3 -6 -2 -13 4 -17 5 -3 10 -10 10 -16 0 -8 -74 34 -90 51 -9 10 -285
187 -405 260 -66 40 -145 91 -175 114 -82 61 -444 356 -460 375 -3 3 -36 33
-75 66 -38 33 -72 62 -75 65 -3 3 -25 23 -50 44 -40 35 -159 142 -236 213
-436 398 -1101 1058 -1631 1619 -26 28 -112 118 -189 200 -154 162 -160 168
-280 300 -45 49 -95 103 -110 120 -57 60 -151 162 -234 254 -47 51 -98 108
-115 126 -90 96 -119 128 -204 224 -52 58 -126 141 -165 185 -39 43 -89 100
-111 125 -22 25 -42 47 -45 50 -21 20 -547 616 -665 753 -27 32 -59 69 -70 81
-11 12 -40 46 -65 76 -25 29 -50 59 -57 65 -7 7 -43 48 -80 91 -113 132 -125
144 -136 137 -6 -3 -7 -1 -3 6 10 15 -13 43 -27 34 -5 -3 -7 -1 -4 4 4 6 -4
21 -17 34 -12 13 -103 121 -201 239 -98 118 -204 244 -236 280 -62 70 -77 88
-123 143 -17 20 -35 33 -40 30 -6 -4 -8 -2 -3 2 4 5 -1 17 -10 28 -23 26 -20
24 146 -87z m4795 -903 c-27 -32 -51 -60 -54 -63 -11 -9 -116 -154 -157 -215
-203 -304 -337 -694 -360 -1050 -11 -170 -5 -469 12 -517 2 -7 6 -35 9 -63 14
-147 86 -441 157 -650 21 -60 26 -75 49 -130 15 -40 8 -31 -105 115 -120 157
-136 177 -214 275 -126 157 -380 466 -391 475 -3 3 -61 70 -130 150 -68 80
-142 165 -165 189 -22 24 -49 53 -60 65 -11 12 -63 69 -115 126 -261 287 -650
671 -912 899 -23 20 -51 45 -62 56 -12 11 -86 74 -166 139 -80 66 -149 123
-154 127 -5 4 25 -1 65 -12 73 -20 295 -74 341 -83 105 -21 145 -28 237 -42
58 -9 120 -18 136 -20 17 -2 48 -6 70 -9 206 -26 734 -27 900 0 17 3 48 7 70
9 51 6 106 14 175 27 68 13 79 15 178 35 15 3 54 12 87 21 33 8 67 17 75 19
104 24 390 122 480 162 25 11 47 21 49 21 2 1 -18 -25 -45 -56z m-2998 -1901
c137 -176 139 -178 264 -332 55 -67 112 -138 127 -157 32 -40 51 -62 187 -222
177 -208 241 -281 328 -374 15 -16 58 -63 95 -105 273 -306 821 -839 1103
-1072 41 -34 95 -78 119 -98 25 -20 59 -49 75 -64 l31 -27 -70 19 c-89 26
-342 85 -420 99 -33 6 -69 13 -81 15 -12 2 -45 7 -75 11 -30 4 -56 8 -59 10
-3 2 -37 6 -75 10 -39 4 -81 8 -95 11 -141 24 -755 24 -873 0 -12 -3 -42 -7
-67 -10 -261 -27 -649 -126 -930 -235 -100 -39 -138 -50 -115 -33 37 26 174
202 263 337 101 153 254 495 276 618 3 16 9 43 15 60 17 55 45 223 56 337 6
58 6 366 1 405 -2 17 -7 62 -10 100 -18 195 -81 469 -166 725 -41 122 -52 167
-38 147 11 -15 71 -94 134 -175z"/>
</g>
</svg>
